<?xml version="1.0" standalone="no"?>
<!DOCTYPE svg PUBLIC "-//W3C//DTD SVG 20010904//EN"
 "http://www.w3.org/TR/2001/REC-SVG-20010904/DTD/svg10.dtd">
<svg version="1.0" xmlns="http://www.w3.org/2000/svg"
 width="512.000000pt" height="512.000000pt" viewBox="0 0 512.000000 512.000000"
 preserveAspectRatio="xMidYMid meet">
<metadata>
Created by potrace 1.11, written by Peter Selinger 2001-2013
</metadata>
<g transform="translate(0.000000,512.000000) scale(0.100000,-0.100000)"
fill="#000000" stroke="none">
<path d="M2433 5108 c-463 -26 -891 -165 -1258 -406 -701 -460 -1123 -1192
-1163 -2020 -47 -946 435 -1839 1251 -2320 803 -474 1811 -471 2607 8 1005
604 1466 1790 1135 2920 -261 891 -1020 1587 -1930 1769 -215 43 -447 61 -642
49z m375 -239 c614 -66 1199 -391 1578 -875 152 -193 300 -469 378 -705 185
-558 149 -1183 -100 -1708 -44 -93 -60 -118 -73 -114 -13 4 -13 3 -2 -5 11 -8
7 -22 -24 -73 -58 -97 -161 -243 -200 -285 -19 -20 -35 -40 -35 -43 0 -3 -41
-50 -91 -104 -58 -62 -97 -96 -106 -93 -8 3 -12 2 -9 -3 4 -5 -16 -29 -43 -54
-247 -221 -608 -410 -947 -496 -176 -45 -298 -61 -499 -68 -340 -11 -615 36
-925 158 -536 211 -973 613 -1230 1132 -110 223 -175 426 -217 682 -25 152
-25 543 0 694 65 394 214 743 456 1066 147 195 402 426 626 565 263 164 637
293 950 328 114 13 399 14 513 1z"/>
<path d="M2355 4593 c-248 -23 -560 -121 -791 -250 -203 -113 -440 -311 -589
-493 -241 -295 -393 -654 -445 -1055 -28 -212 -22 -369 25 -640 45 -266 234
-667 411 -875 255 -300 510 -488 841 -618 195 -78 290 -101 528 -131 342 -44
719 13 1050 159 39 17 150 72 170 83 73 44 243 155 256 167 9 8 56 49 103 90
316 272 564 700 646 1114 41 206 51 337 38 529 -18 289 -81 529 -204 782 -108
223 -232 393 -415 570 -329 318 -740 513 -1194 565 -84 9 -340 11 -430 3z
m420 -1123 c344 -40 686 -182 940 -390 111 -92 139 -124 131 -154 -7 -28 -178
-201 -206 -209 -11 -3 -49 20 -103 63 -234 185 -448 288 -693 336 -127 25
-435 25 -559 1 -252 -51 -512 -181 -723 -361 -30 -26 -58 -46 -64 -46 -6 0
-58 47 -115 104 -81 81 -104 110 -101 127 7 50 275 257 443 341 161 81 386
151 585 182 114 17 340 20 465 6z m-65 -500 c170 -20 370 -83 515 -165 75 -41
206 -139 249 -184 28 -29 29 -32 15 -58 -21 -40 -177 -192 -204 -199 -19 -5
-44 9 -117 61 -324 233 -647 273 -991 124 -92 -40 -217 -112 -279 -161 -26
-20 -44 -27 -58 -23 -24 8 -181 165 -201 201 -13 26 -12 28 46 82 65 60 188
143 275 187 116 59 339 123 480 138 72 8 188 7 270 -3z m88 -529 c87 -26 196
-79 266 -131 69 -50 80 -65 72 -96 -7 -27 -139 -166 -188 -198 -27 -18 -28
-18 -93 23 -35 23 -99 53 -142 67 -140 47 -293 22 -446 -72 l-58 -36 -37 28
c-65 50 -172 164 -178 191 -6 24 -1 33 42 70 71 63 231 140 339 163 121 26
316 22 423 -9z m-111 -497 c118 -38 121 -75 16 -185 -74 -78 -116 -109 -146
-109 -19 0 -161 134 -188 176 -38 62 -19 86 96 124 69 23 141 21 222 -6z"/>
<path d="M4280 1326 c0 -3 9 -10 20 -16 11 -6 20 -8 20 -6 0 3 -9 10 -20 16
-11 6 -20 8 -20 6z"/>
<path d="M4338 1273 c7 -3 16 -2 19 1 4 3 -2 6 -13 5 -11 0 -14 -3 -6 -6z"/>
<path d="M4140 1216 c0 -3 9 -10 20 -16 11 -6 20 -8 20 -6 0 3 -9 10 -20 16
-11 6 -20 8 -20 6z"/>
<path d="M4320 1185 c0 -8 4 -15 9 -15 5 0 14 7 21 15 10 13 9 15 -9 15 -12 0
-21 -6 -21 -15z"/>
<path d="M4295 1170 c10 -11 20 -20 23 -20 3 0 -3 9 -13 20 -10 11 -20 20 -23
20 -3 0 3 -9 13 -20z"/>
<path d="M4364 1162 c-6 -4 -8 -18 -4 -32 l6 -25 8 29 c8 32 5 38 -10 28z"/>
<path d="M4290 1090 c13 -19 25 -37 27 -39 2 -3 2 5 0 17 -2 13 -14 30 -27 39
l-24 17 24 -34z"/>
<path d="M4025 1070 c-8 -12 17 -23 41 -18 14 2 12 6 -9 15 -16 8 -29 9 -32 3z"/>
<path d="M3670 667 c0 -3 17 -17 37 -33 20 -15 33 -23 29 -16 -8 13 -66 56
-66 49z"/>
</g>
</svg>
